<svg xmlns="http://www.w3.org/2000/svg" viewBox="0 0 128 128" role="img" aria-label="Alamgir Fashion Centre logo">
  <defs>
    <linearGradient id="gold" x1="24" y1="20" x2="104" y2="112" gradientUnits="userSpaceOnUse">
      <stop offset="0" stop-color="#ffd27a" />
      <stop offset="0.45" stop-color="#f6b83a" />
      <stop offset="1" stop-color="#b87400" />
    </linearGradient>
    <radialGradient id="ring" cx="50%" cy="42%" r="68%">
      <stop offset="0" stop-color="#ffe08f" />
      <stop offset="0.4" stop-color="#f6b83a" />
      <stop offset="1" stop-color="#8f5a00" />
    </radialGradient>
    <filter id="glow" x="-40%" y="-40%" width="180%" height="180%">
      <feGaussianBlur stdDeviation="3.2" result="b" />
      <feMerge>
        <feMergeNode in="b" />
        <feMergeNode in="SourceGraphic" />
      </feMerge>
    </filter>
  </defs>

  <circle cx="64" cy="64" r="56" fill="none" stroke="#f6b83a" stroke-width="10" opacity="0.25" filter="url(#glow)" />
  <circle cx="64" cy="64" r="54" fill="#070707" stroke="url(#ring)" stroke-width="6" />
  <circle cx="64" cy="64" r="47" fill="none" stroke="url(#gold)" stroke-width="2.5" opacity="0.9" />

  <g transform="translate(0 2)">
    <path d="M64 25c3.4 0 6.3 2.4 7 5.7l2.3-2c1.6-1.4 4.1-.9 5 .9l1.1 2.1 2.3-1c1.8-.8 4 .3 4.4 2.2l.5 2.4c.3 1.6-.6 3.1-2.1 3.6l-5.2 1.6-1.1 5.4H49.8l-1.1-5.4-5.2-1.6c-1.5-.5-2.4-2-2.1-3.6l.5-2.4c.4-1.9 2.6-3 4.4-2.2l2.3 1 1.1-2.1c.9-1.8 3.4-2.3 5-.9l2.3 2c.7-3.3 3.6-5.7 7-5.7Z" fill="url(#gold)" />
    <circle cx="64" cy="42" r="12.5" fill="#0b0b0b" stroke="url(#gold)" stroke-width="2.5" />
    <text x="64" y="46.5" text-anchor="middle" font-family="Georgia, 'Times New Roman', serif" font-size="16" font-weight="700" fill="url(#gold)">A</text>
    <path d="M34 53c9.5-4 16.4-5.8 30-5.8S84.5 49 94 53" fill="none" stroke="url(#gold)" stroke-width="2.2" stroke-linecap="round" />
    <path d="M34 53c4.2 1.7 7.2 2.8 10.5 3.6M94 53c-4.2 1.7-7.2 2.8-10.5 3.6" fill="none" stroke="url(#gold)" stroke-width="2" stroke-linecap="round" opacity="0.8" />
  </g>

  <text x="64" y="78" text-anchor="middle" font-family="Georgia, 'Times New Roman', serif" font-size="18" font-weight="700" fill="url(#gold)">Alamgir</text>
  <path d="M34 84h60" stroke="url(#gold)" stroke-width="1.6" stroke-linecap="round" opacity="0.8" />
  <text x="64" y="101" text-anchor="middle" font-family="Georgia, 'Times New Roman', serif" font-size="12.5" font-weight="600" fill="#e6c370">Fashion Centre</text>
</svg>
