<svg xmlns="http://www.w3.org/2000/svg" viewBox="0 0 128 128" role="img" aria-label="Alamgir favicon">
  <defs>
    <linearGradient id="gold" x1="24" y1="20" x2="104" y2="112" gradientUnits="userSpaceOnUse">
      <stop offset="0" stop-color="#ffd27a" />
      <stop offset="0.45" stop-color="#f6b83a" />
      <stop offset="1" stop-color="#b87400" />
    </linearGradient>
    <radialGradient id="ring" cx="50%" cy="42%" r="68%">
      <stop offset="0" stop-color="#ffe08f" />
      <stop offset="0.4" stop-color="#f6b83a" />
      <stop offset="1" stop-color="#8f5a00" />
    </radialGradient>
  </defs>

  <circle cx="64" cy="64" r="54" fill="#070707" stroke="url(#ring)" stroke-width="6" />
  <circle cx="64" cy="64" r="47" fill="none" stroke="url(#gold)" stroke-width="2.5" opacity="0.9" />

  <g transform="translate(0 2)">
    <path d="M64 25c3.4 0 6.3 2.4 7 5.7l2.3-2c1.6-1.4 4.1-.9 5 .9l1.1 2.1 2.3-1c1.8-.8 4 .3 4.4 2.2l.5 2.4c.3 1.6-.6 3.1-2.1 3.6l-5.2 1.6-1.1 5.4H49.8l-1.1-5.4-5.2-1.6c-1.5-.5-2.4-2-2.1-3.6l.5-2.4c.4-1.9 2.6-3 4.4-2.2l2.3 1 1.1-2.1c.9-1.8 3.4-2.3 5-.9l2.3 2c.7-3.3 3.6-5.7 7-5.7Z" fill="url(#gold)" />
    <circle cx="64" cy="44" r="18" fill="#0b0b0b" stroke="url(#gold)" stroke-width="3" />
    <text x="64" y="50" text-anchor="middle" font-family="Georgia, 'Times New Roman', serif" font-size="26" font-weight="700" fill="url(#gold)">A</text>
  </g>
</svg>
